#N canvas 552 65 720 599 10;
#X obj 78 158 noise~;
#X obj 139 548 dac~;
#X obj 191 66 f 1;
#X obj 236 68 + 1;
#X obj 195 96 / 100;
#X obj 200 127 sin;
#X obj 204 154 + 1;
#X obj 200 181 * 100;
#X obj 198 207 + 300;
#X floatatom 217 258 5 0 0 0 - - -, f 5;
#X text 451 5 Mix;
#X obj 153 64 vsl 15 128 0 1 0 0 empty empty empty 0 -9 0 10 -262144
-1 -1 10400 1;
#X floatatom 136 267 5 0 0 0 - - -, f 5;
#X text 152 36 Mix;
#X obj 112 333 +~;
#X obj 447 195 readsf~ 1;
#X obj 416 295 dac~;
#X msg 460 53 open wavecrash.aiff \, 1;
#X obj 276 52 metro 10;
#X obj 279 18 tgl 15 0 empty empty empty 17 7 0 10 -262144 -1 -1 1
1;
#X obj 128 456 *~ 0.3;
#X obj 103 311 *~ 0.8;
#X obj 269 323 select 0;
#X obj 121 355 bp~ 400 1;
#X obj 254 434 mod 499;
#X connect 0 0 21 0;
#X connect 2 0 3 0;
#X connect 2 0 4 0;
#X connect 3 0 2 1;
#X connect 4 0 5 0;
#X connect 5 0 6 0;
#X connect 6 0 7 0;
#X connect 7 0 8 0;
#X connect 8 0 9 0;
#X connect 8 0 23 1;
#X connect 9 0 24 0;
#X connect 11 0 12 0;
#X connect 12 0 21 1;
#X connect 14 0 23 0;
#X connect 15 0 16 0;
#X connect 15 0 16 1;
#X connect 17 0 15 0;
#X connect 18 0 2 0;
#X connect 19 0 18 0;
#X connect 20 0 1 0;
#X connect 20 0 1 1;
#X connect 21 0 14 0;
#X connect 22 0 17 0;
#X connect 23 0 20 0;
#X connect 24 0 22 0;
