#N canvas 509 104 1314 812 10;
#X obj 181 140 t b f;
#X obj 173 248 f;
#X obj 174 379 cos~;
#X obj 174 402 *~;
#X obj 312 375 cos~;
#X obj 312 398 *~;
#X obj 185 433 +~;
#X obj 186 464 *~;
#X obj 181 502 dac~;
#X obj 78 387 *~ 10;
#X obj 77 420 clip~ -0.5 1;
#X obj 171 302 hv.vline;
#X obj 164 66 bng 15 250 50 0 empty empty empty 17 7 0 10 -262144 -1
-1;
#X obj 313 297 hv.vline;
#X obj 76 320 noise~;
#X obj 175 219 del 50;
#X obj 173 325 *~ 100;
#X obj 311 321 *~ 100;
#X msg 174 276 0 0 0 \, 0.9 \$1 0;
#X msg 312 272 0 0 0 \, 0.9 \$1 0;
#X obj 77 356 bp~ 100 20;
#X obj 175 351 +~ 0.25;
#X obj 313 347 +~ 0.25;
#X obj 354 213 * 2;
#X msg 165 98 125;
#X text 243 64 Shield Power Up;
#X obj 532 146 t b f;
#X obj 524 254 f;
#X obj 525 385 cos~;
#X obj 525 408 *~;
#X obj 663 381 cos~;
#X obj 663 404 *~;
#X obj 536 439 +~;
#X obj 537 470 *~;
#X obj 532 508 dac~;
#X obj 429 393 *~ 10;
#X obj 428 426 clip~ -0.5 1;
#X obj 522 308 hv.vline;
#X obj 515 72 bng 15 250 50 0 empty empty empty 17 7 0 10 -262144 -1
-1;
#X obj 664 303 hv.vline;
#X obj 427 326 noise~;
#X obj 526 225 del 50;
#X obj 524 331 *~ 100;
#X obj 662 327 *~ 100;
#X msg 525 282 0 0 0 \, 0.9 \$1 0;
#X msg 663 278 0 0 0 \, 0.9 \$1 0;
#X obj 428 362 bp~ 100 20;
#X obj 526 357 +~ 0.25;
#X obj 664 353 +~ 0.25;
#X text 594 70 Shield Power Down;
#X obj 705 219 * 3;
#X msg 516 104 110;
#X obj 159 27 r powerup @hv_event;
#X obj 512 23 r powerdown @hv_event;
#X msg 897 104 50;
#X obj 913 146 t b f;
#X obj 1086 219 / 2;
#X obj 907 225 del 200;
#X obj 905 254 f;
#X msg 906 282 0 0 0 \, 0.5 \$1 0;
#X obj 905 331 *~ -1;
#X obj 907 357 +~ 0.25;
#X obj 906 385 cos~;
#X obj 906 408 *~;
#X msg 1044 278 0 0 0 \, 0.5 \$1 0;
#X obj 1043 327 *~ -1;
#X obj 1045 353 +~ 0.25;
#X obj 1044 381 cos~;
#X obj 1044 404 *~;
#X obj 917 439 +~;
#X obj 918 470 *~;
#X obj 913 536 dac~;
#X obj 808 326 noise~;
#X obj 809 362 bp~ 100 20;
#X obj 810 393 *~ 10;
#X obj 809 426 clip~ -0.5 1;
#X obj 903 308 hv.vline;
#X msg 920 104 70, f 4;
#X msg 948 104 120;
#X obj 924 72 bng 15 250 50 0 empty empty empty 17 7 0 10 -262144 -1
-1;
#X obj 896 72 bng 15 250 50 0 empty empty empty 17 7 0 10 -262144 -1
-1;
#X obj 954 72 bng 15 250 50 0 empty empty empty 17 7 0 10 -262144 -1
-1;
#X obj 1045 303 hv.vline;
#X obj 767 24 r bangFast @hv_event;
#X obj 908 24 r bangMed @hv_event;
#X obj 1051 26 r bangSlow @hv_event;
#X obj 917 504 *~;
#X floatatom 980 484 5 0 0 0 - - -, f 5;
#X obj 980 450 r volume @hv_param 0 15 15;
#X connect 0 0 15 0;
#X connect 0 1 15 1;
#X connect 0 1 23 0;
#X connect 1 0 18 0;
#X connect 2 0 3 1;
#X connect 2 0 3 0;
#X connect 3 0 6 1;
#X connect 4 0 5 1;
#X connect 4 0 5 0;
#X connect 5 0 6 0;
#X connect 6 0 7 0;
#X connect 7 0 8 0;
#X connect 7 0 8 1;
#X connect 9 0 10 0;
#X connect 10 0 7 1;
#X connect 11 0 16 0;
#X connect 12 0 24 0;
#X connect 13 0 17 0;
#X connect 14 0 20 0;
#X connect 15 0 1 0;
#X connect 16 0 21 0;
#X connect 17 0 22 0;
#X connect 18 0 11 0;
#X connect 19 0 13 0;
#X connect 20 0 9 0;
#X connect 21 0 2 0;
#X connect 22 0 4 0;
#X connect 23 0 19 0;
#X connect 23 0 1 1;
#X connect 24 0 0 0;
#X connect 26 0 41 0;
#X connect 26 1 41 1;
#X connect 26 1 50 0;
#X connect 27 0 44 0;
#X connect 28 0 29 1;
#X connect 28 0 29 0;
#X connect 29 0 32 1;
#X connect 30 0 31 1;
#X connect 30 0 31 0;
#X connect 31 0 32 0;
#X connect 32 0 33 0;
#X connect 33 0 34 0;
#X connect 33 0 34 1;
#X connect 35 0 36 0;
#X connect 36 0 33 1;
#X connect 37 0 42 0;
#X connect 38 0 51 0;
#X connect 39 0 43 0;
#X connect 40 0 46 0;
#X connect 41 0 27 0;
#X connect 42 0 47 0;
#X connect 43 0 48 0;
#X connect 44 0 37 0;
#X connect 45 0 39 0;
#X connect 46 0 35 0;
#X connect 47 0 28 0;
#X connect 48 0 30 0;
#X connect 50 0 45 0;
#X connect 50 0 27 1;
#X connect 51 0 26 0;
#X connect 52 0 12 0;
#X connect 53 0 38 0;
#X connect 54 0 55 0;
#X connect 55 0 57 0;
#X connect 55 1 56 0;
#X connect 55 1 57 1;
#X connect 56 0 64 0;
#X connect 56 0 58 1;
#X connect 57 0 58 0;
#X connect 58 0 59 0;
#X connect 59 0 76 0;
#X connect 60 0 61 0;
#X connect 61 0 62 0;
#X connect 62 0 63 1;
#X connect 62 0 63 0;
#X connect 63 0 69 1;
#X connect 64 0 82 0;
#X connect 65 0 66 0;
#X connect 66 0 67 0;
#X connect 67 0 68 1;
#X connect 67 0 68 0;
#X connect 68 0 69 0;
#X connect 69 0 70 0;
#X connect 70 0 86 0;
#X connect 72 0 73 0;
#X connect 73 0 74 0;
#X connect 74 0 75 0;
#X connect 75 0 70 1;
#X connect 76 0 60 0;
#X connect 77 0 55 0;
#X connect 78 0 55 0;
#X connect 79 0 77 0;
#X connect 80 0 54 0;
#X connect 81 0 78 0;
#X connect 82 0 65 0;
#X connect 83 0 80 0;
#X connect 84 0 79 0;
#X connect 85 0 81 0;
#X connect 86 0 71 0;
#X connect 86 0 71 1;
#X connect 87 0 86 1;
#X connect 88 0 87 0;
