#N canvas 543 301 1171 768 10;
#X obj 235 15 noise~;
#X obj 235 38 *~;
#X obj 236 91 lop~ 0.1;
#X obj 236 160 +~;
#X obj 204 236 vcf~ 600 23;
#X obj 204 282 *~;
#X obj 204 305 bp~ 1000 7;
#X obj 204 328 dac~;
#X obj 154 92 lop~ 1;
#X obj 154 115 *~;
#X obj 154 161 +~ 0.5;
#X obj 590 53 osc~ 0.03;
#X obj 590 76 +~;
#X obj 660 53 osc~ 0.3;
#X obj 341 91 lop~ 0.19;
#X obj 341 176 +~;
#X obj 349 223 vcf~ 600 23;
#X obj 434 175 loadbang;
#X obj 49 72 vsl 15 128 0 1 0 0 empty empty empty 0 -9 0 10 -262144
-1 -1 0 1;
#X obj 590 145 +~ 1000;
#X obj 236 137 clip~ 0 1000;
#X obj 341 153 clip~ 0 1000;
#X obj 204 259 *~ 0.45;
#X obj 154 138 *~ 2000;
#X obj 590 122 *~ 700;
#X obj 590 99 *~ 0.45;
#X msg 267 215 3;
#X msg 435 200 15;
#X obj 236 114 *~ 500;
#X floatatom 458 109 5 0 0 0 - - -, f 5;
#X text 423 34 Controls wind speed;
#X obj 458 60 loadbang;
#X msg 458 83 238;
#X obj 341 114 *~ 16000;
#X obj 74 10 r volume @hv_param 0 1 0.5;
#X connect 0 0 1 0;
#X connect 1 0 2 0;
#X connect 1 0 8 0;
#X connect 1 0 14 0;
#X connect 1 0 16 0;
#X connect 1 0 4 0;
#X connect 2 0 28 0;
#X connect 3 0 4 1;
#X connect 4 0 22 0;
#X connect 5 0 6 0;
#X connect 6 0 7 0;
#X connect 6 0 7 1;
#X connect 8 0 9 0;
#X connect 8 0 9 1;
#X connect 9 0 23 0;
#X connect 10 0 5 1;
#X connect 11 0 12 0;
#X connect 12 0 25 0;
#X connect 13 0 12 1;
#X connect 14 0 33 0;
#X connect 15 0 16 1;
#X connect 17 0 27 0;
#X connect 17 0 26 0;
#X connect 18 0 1 1;
#X connect 19 0 15 1;
#X connect 20 0 3 0;
#X connect 21 0 15 0;
#X connect 22 0 5 0;
#X connect 23 0 10 0;
#X connect 24 0 19 0;
#X connect 25 0 24 0;
#X connect 26 0 4 2;
#X connect 27 0 16 2;
#X connect 28 0 20 0;
#X connect 29 0 3 1;
#X connect 31 0 32 0;
#X connect 32 0 29 0;
#X connect 33 0 21 0;
#X connect 34 0 18 0;
