#N canvas 331 23 1109 812 10;
#X obj 189 106 t b f;
#X obj 181 214 f;
#X obj 182 345 cos~;
#X obj 182 368 *~;
#X obj 320 341 cos~;
#X obj 320 364 *~;
#X obj 193 399 +~;
#X obj 194 430 *~;
#X obj 189 468 dac~;
#X obj 86 353 *~ 10;
#X obj 85 386 clip~ -0.5 1;
#X obj 179 268 hv.vline;
#X obj 172 32 bng 15 250 50 0 empty empty empty 17 7 0 10 -262144 -1
-1;
#X obj 321 263 hv.vline;
#X obj 84 286 noise~;
#X obj 183 185 del 50;
#X obj 181 291 *~ 100;
#X obj 319 287 *~ 100;
#X msg 182 242 0 0 0 \, 0.9 \$1 0;
#X msg 320 238 0 0 0 \, 0.9 \$1 0;
#X obj 85 322 bp~ 100 20;
#X obj 183 317 +~ 0.25;
#X obj 321 313 +~ 0.25;
#X obj 362 179 * 2;
#X msg 173 64 125;
#X text 251 30 Shield Power Up;
#X obj 540 112 t b f;
#X obj 532 220 f;
#X obj 533 351 cos~;
#X obj 533 374 *~;
#X obj 671 347 cos~;
#X obj 671 370 *~;
#X obj 544 405 +~;
#X obj 545 436 *~;
#X obj 540 474 dac~;
#X obj 437 359 *~ 10;
#X obj 436 392 clip~ -0.5 1;
#X obj 530 274 hv.vline;
#X obj 523 38 bng 15 250 50 0 empty empty empty 17 7 0 10 -262144 -1
-1;
#X obj 672 269 hv.vline;
#X obj 435 292 noise~;
#X obj 534 191 del 50;
#X obj 532 297 *~ 100;
#X obj 670 293 *~ 100;
#X msg 533 248 0 0 0 \, 0.9 \$1 0;
#X msg 671 244 0 0 0 \, 0.9 \$1 0;
#X obj 436 328 bp~ 100 20;
#X obj 534 323 +~ 0.25;
#X obj 672 319 +~ 0.25;
#X text 602 36 Shield Power Down;
#X obj 713 185 * 3;
#X msg 524 70 110;
#X connect 0 0 15 0;
#X connect 0 1 15 1;
#X connect 0 1 23 0;
#X connect 1 0 18 0;
#X connect 2 0 3 1;
#X connect 2 0 3 0;
#X connect 3 0 6 1;
#X connect 4 0 5 1;
#X connect 4 0 5 0;
#X connect 5 0 6 0;
#X connect 6 0 7 0;
#X connect 7 0 8 0;
#X connect 7 0 8 1;
#X connect 9 0 10 0;
#X connect 10 0 7 1;
#X connect 11 0 16 0;
#X connect 12 0 24 0;
#X connect 13 0 17 0;
#X connect 14 0 20 0;
#X connect 15 0 1 0;
#X connect 16 0 21 0;
#X connect 17 0 22 0;
#X connect 18 0 11 0;
#X connect 19 0 13 0;
#X connect 20 0 9 0;
#X connect 21 0 2 0;
#X connect 22 0 4 0;
#X connect 23 0 19 0;
#X connect 23 0 1 1;
#X connect 24 0 0 0;
#X connect 26 0 41 0;
#X connect 26 1 41 1;
#X connect 26 1 50 0;
#X connect 27 0 44 0;
#X connect 28 0 29 1;
#X connect 28 0 29 0;
#X connect 29 0 32 1;
#X connect 30 0 31 1;
#X connect 30 0 31 0;
#X connect 31 0 32 0;
#X connect 32 0 33 0;
#X connect 33 0 34 0;
#X connect 33 0 34 1;
#X connect 35 0 36 0;
#X connect 36 0 33 1;
#X connect 37 0 42 0;
#X connect 38 0 51 0;
#X connect 39 0 43 0;
#X connect 40 0 46 0;
#X connect 41 0 27 0;
#X connect 42 0 47 0;
#X connect 43 0 48 0;
#X connect 44 0 37 0;
#X connect 45 0 39 0;
#X connect 46 0 35 0;
#X connect 47 0 28 0;
#X connect 48 0 30 0;
#X connect 50 0 45 0;
#X connect 50 0 27 1;
#X connect 51 0 26 0;
