#N canvas 146 499 1082 773 10;
#X obj 87 243 noise~;
#X obj 87 632 dac~;
#X obj 245 153 + 1;
#X obj 204 181 / 100;
#X obj 202 240 + 1;
#X obj 209 266 * 100;
#X obj 207 292 + 300;
#X floatatom 233 323 5 0 0 0 - - -, f 5;
#X obj 156 150 vsl 15 128 0 0.1 0 0 empty empty empty 0 -9 0 10 -262144
-1 -1 3100 1;
#X floatatom 144 306 5 0 0 0 - - -, f 5;
#X text 161 121 Mix;
#X obj 121 418 +~;
#X obj 174 92 tgl 15 0 empty empty empty 17 7 0 10 -262144 -1 -1 0
1;
#X obj 81 546 *~ 0.3;
#X obj 130 440 bp~ 400 1;
#X obj 200 151 f;
#X obj 222 210 sin;
#X obj 112 374 *~ 0.8;
#X obj 270 371 + 1;
#X obj 187 398 / 100;
#X obj 225 369 f;
#X obj 247 428 sin;
#X floatatom 295 396 5 0 0 0 - - -, f 5;
#X obj 259 452 + 1;
#X obj 311 451 / 2;
#X obj 246 40 r wavespeed @hv_param 10 100 10;
#X obj 112 39 r turnon @hv_event;
#X obj 321 335 metro 10;
#X obj 215 113 metro 100;
#X obj 366 298 r volume @hv_param 10 100 50;
#X obj 42 122 clip 0.01 0.2;
#X connect 0 0 17 0;
#X connect 2 0 15 1;
#X connect 3 0 16 0;
#X connect 4 0 5 0;
#X connect 5 0 6 0;
#X connect 6 0 7 0;
#X connect 6 0 14 1;
#X connect 8 0 9 0;
#X connect 9 0 17 1;
#X connect 11 0 14 0;
#X connect 12 0 27 0;
#X connect 12 0 28 0;
#X connect 13 0 1 0;
#X connect 13 0 1 1;
#X connect 14 0 13 0;
#X connect 15 0 2 0;
#X connect 15 0 3 0;
#X connect 16 0 4 0;
#X connect 17 0 11 0;
#X connect 18 0 20 1;
#X connect 19 0 21 0;
#X connect 20 0 18 0;
#X connect 20 0 19 0;
#X connect 21 0 23 0;
#X connect 22 0 30 0;
#X connect 23 0 24 0;
#X connect 24 0 22 0;
#X connect 25 0 28 1;
#X connect 26 0 12 0;
#X connect 27 0 20 0;
#X connect 28 0 15 0;
#X connect 29 0 27 1;
#X connect 30 0 8 0;
