#N canvas 460 113 720 599 10;
#X obj 78 158 noise~;
#X obj 78 547 dac~;
#X obj 236 68 + 1;
#X obj 195 96 / 100;
#X obj 193 155 + 1;
#X obj 200 181 * 100;
#X obj 198 207 + 300;
#X floatatom 224 238 5 0 0 0 - - -, f 5;
#X obj 157 65 vsl 15 128 0 1 0 0 empty empty empty 0 -9 0 10 -262144
-1 -1 0 1;
#X floatatom 135 221 5 0 0 0 - - -, f 5;
#X text 152 36 Mix;
#X obj 112 333 +~;
#X obj 206 28 metro 10;
#X obj 165 7 tgl 15 0 empty empty empty 17 7 0 10 -262144 -1 -1 0 1
;
#X obj 72 461 *~ 0.3;
#X obj 121 355 bp~ 400 1;
#X obj 191 66 f;
#X obj 213 125 sin;
#X obj 103 289 *~ 0.8;
#X obj 261 286 + 1;
#X obj 178 313 / 100;
#X obj 216 284 f;
#X obj 238 343 sin;
#X floatatom 286 311 5 0 0 0 - - -, f 5;
#X obj 250 367 + 1;
#X obj 312 250 metro 50;
#X obj 302 366 / 2;
#X connect 0 0 18 0;
#X connect 2 0 16 1;
#X connect 3 0 17 0;
#X connect 4 0 5 0;
#X connect 5 0 6 0;
#X connect 6 0 7 0;
#X connect 6 0 15 1;
#X connect 8 0 9 0;
#X connect 9 0 18 1;
#X connect 11 0 15 0;
#X connect 12 0 16 0;
#X connect 13 0 12 0;
#X connect 13 0 25 0;
#X connect 14 0 1 0;
#X connect 14 0 1 1;
#X connect 15 0 14 0;
#X connect 16 0 2 0;
#X connect 16 0 3 0;
#X connect 17 0 4 0;
#X connect 18 0 11 0;
#X connect 19 0 21 1;
#X connect 20 0 22 0;
#X connect 21 0 19 0;
#X connect 21 0 20 0;
#X connect 22 0 24 0;
#X connect 23 0 8 0;
#X connect 24 0 26 0;
#X connect 25 0 21 0;
#X connect 26 0 23 0;
