#N canvas 329 570 1167 812 10;
#X msg 157 114 50;
#X obj 173 156 t b f;
#X obj 346 229 / 2;
#X obj 167 235 del 200;
#X obj 165 264 f;
#X msg 166 292 0 0 0 \, 0.5 \$1 0;
#X obj 165 341 *~ -1;
#X obj 167 367 +~ 0.25;
#X obj 166 395 cos~;
#X obj 166 418 *~;
#X msg 304 288 0 0 0 \, 0.5 \$1 0;
#X obj 303 337 *~ -1;
#X obj 305 363 +~ 0.25;
#X obj 304 391 cos~;
#X obj 304 414 *~;
#X obj 177 449 +~;
#X obj 178 480 *~;
#X obj 173 546 dac~;
#X obj 68 336 noise~;
#X obj 69 372 bp~ 100 20;
#X obj 70 403 *~ 10;
#X obj 69 436 clip~ -0.5 1;
#X obj 163 318 hv.vline;
#X msg 180 114 70, f 4;
#X msg 208 114 120;
#X obj 184 82 bng 15 250 50 0 empty empty empty 17 7 0 10 -262144 -1
-1;
#X obj 156 82 bng 15 250 50 0 empty empty empty 17 7 0 10 -262144 -1
-1;
#X obj 214 82 bng 15 250 50 0 empty empty empty 17 7 0 10 -262144 -1
-1;
#X obj 305 313 hv.vline;
#X obj 27 34 r bangFast @hv_event;
#X obj 168 34 r bangMed @hv_event;
#X obj 311 36 r bangSlow @hv_event;
#X obj 177 514 *~;
#X floatatom 240 494 5 0 0 0 - - -, f 5;
#X obj 240 460 r volume @hv_param 0 15 15;
#X connect 0 0 1 0;
#X connect 1 0 3 0;
#X connect 1 1 2 0;
#X connect 1 1 3 1;
#X connect 2 0 10 0;
#X connect 2 0 4 1;
#X connect 3 0 4 0;
#X connect 4 0 5 0;
#X connect 5 0 22 0;
#X connect 6 0 7 0;
#X connect 7 0 8 0;
#X connect 8 0 9 1;
#X connect 8 0 9 0;
#X connect 9 0 15 1;
#X connect 10 0 28 0;
#X connect 11 0 12 0;
#X connect 12 0 13 0;
#X connect 13 0 14 1;
#X connect 13 0 14 0;
#X connect 14 0 15 0;
#X connect 15 0 16 0;
#X connect 16 0 32 0;
#X connect 18 0 19 0;
#X connect 19 0 20 0;
#X connect 20 0 21 0;
#X connect 21 0 16 1;
#X connect 22 0 6 0;
#X connect 23 0 1 0;
#X connect 24 0 1 0;
#X connect 25 0 23 0;
#X connect 26 0 0 0;
#X connect 27 0 24 0;
#X connect 28 0 11 0;
#X connect 29 0 26 0;
#X connect 30 0 25 0;
#X connect 31 0 27 0;
#X connect 32 0 17 0;
#X connect 32 0 17 1;
#X connect 33 0 32 1;
#X connect 34 0 33 0;
